<svg xmlns="http://www.w3.org/2000/svg" viewBox="0 0 520 620" role="img" aria-label="Abstract woman illustration">
  <defs>
    <linearGradient id="skin" x1="0" y1="0" x2="1" y2="1">
      <stop offset="0" stop-color="#f5d7c9"/>
      <stop offset="1" stop-color="#c47d7b"/>
    </linearGradient>
    <linearGradient id="dress" x1="0" y1="0" x2="1" y2="1">
      <stop offset="0" stop-color="#fff8f2"/>
      <stop offset="1" stop-color="#d79b92"/>
    </linearGradient>
  </defs>
  <circle cx="260" cy="155" r="88" fill="url(#skin)"/>
  <path d="M171 143c-8-83 76-135 148-94 50 28 57 85 39 126-24-37-74-49-112-40-34 8-56 26-75 8z" fill="#4a2f2c"/>
  <path d="M138 558c22-142 47-242 121-292 82 53 112 153 128 292H138z" fill="url(#dress)"/>
  <path d="M196 298c-50 45-83 94-103 161" fill="none" stroke="#8c5555" stroke-width="18" stroke-linecap="round"/>
  <path d="M326 298c50 45 83 94 103 161" fill="none" stroke="#8c5555" stroke-width="18" stroke-linecap="round"/>
  <path d="M209 219c29 30 75 30 102 0" fill="none" stroke="#8c5555" stroke-width="8" stroke-linecap="round"/>
  <circle cx="229" cy="154" r="7" fill="#2f2421"/>
  <circle cx="292" cy="154" r="7" fill="#2f2421"/>
  <path d="M232 190c20 14 39 14 58 0" fill="none" stroke="#2f2421" stroke-width="6" stroke-linecap="round"/>
  <circle cx="82" cy="96" r="10" fill="#c69b6d" opacity=".65"/>
  <circle cx="437" cy="128" r="7" fill="#c69b6d" opacity=".55"/>
  <circle cx="442" cy="484" r="12" fill="#fff8f2" opacity=".65"/>
  <circle cx="95" cy="496" r="8" fill="#fff8f2" opacity=".65"/>
</svg>